<svg xmlns="http://www.w3.org/2000/svg" version="1.1" xmlns:xlink="http://www.w3.org/1999/xlink" xmlns:svgjs="http://svgjs.dev/svgjs" viewBox="0 0 800 800"><defs><linearGradient x1="50%" y1="0%" x2="50%" y2="100%" id="oooscillate-grad"><stop stop-color="hsl(206, 75%, 49%)" stop-opacity="1" offset="0%"></stop><stop stop-color="hsl(331, 90%, 56%)" stop-opacity="1" offset="100%"></stop></linearGradient></defs><g stroke-width="3" stroke="url(#oooscillate-grad)" fill="none" stroke-linecap="round"><path d="M 0 950 Q 200 -100 400 400 Q 600 900 800 950" opacity="0.05"></path><path d="M 0 925 Q 200 -100 400 400 Q 600 900 800 925" opacity="0.08"></path><path d="M 0 900 Q 200 -100 400 400 Q 600 900 800 900" opacity="0.10"></path><path d="M 0 875 Q 200 -100 400 400 Q 600 900 800 875" opacity="0.13"></path><path d="M 0 850 Q 200 -100 400 400 Q 600 900 800 850" opacity="0.15"></path><path d="M 0 825 Q 200 -100 400 400 Q 600 900 800 825" opacity="0.18"></path><path d="M 0 800 Q 200 -100 400 400 Q 600 900 800 800" opacity="0.20"></path><path d="M 0 775 Q 200 -100 400 400 Q 600 900 800 775" opacity="0.23"></path><path d="M 0 750 Q 200 -100 400 400 Q 600 900 800 750" opacity="0.26"></path><path d="M 0 725 Q 200 -100 400 400 Q 600 900 800 725" opacity="0.28"></path><path d="M 0 700 Q 200 -100 400 400 Q 600 900 800 700" opacity="0.31"></path><path d="M 0 675 Q 200 -100 400 400 Q 600 900 800 675" opacity="0.33"></path><path d="M 0 650 Q 200 -100 400 400 Q 600 900 800 650" opacity="0.36"></path><path d="M 0 625 Q 200 -100 400 400 Q 600 900 800 625" opacity="0.38"></path><path d="M 0 600 Q 200 -100 400 400 Q 600 900 800 600" opacity="0.41"></path><path d="M 0 575 Q 200 -100 400 400 Q 600 900 800 575" opacity="0.44"></path><path d="M 0 550 Q 200 -100 400 400 Q 600 900 800 550" opacity="0.46"></path><path d="M 0 525 Q 200 -100 400 400 Q 600 900 800 525" opacity="0.49"></path><path d="M 0 500 Q 200 -100 400 400 Q 600 900 800 500" opacity="0.51"></path><path d="M 0 475 Q 200 -100 400 400 Q 600 900 800 475" opacity="0.54"></path><path d="M 0 450 Q 200 -100 400 400 Q 600 900 800 450" opacity="0.56"></path><path d="M 0 425 Q 200 -100 400 400 Q 600 900 800 425" opacity="0.59"></path><path d="M 0 400 Q 200 -100 400 400 Q 600 900 800 400" opacity="0.61"></path><path d="M 0 375 Q 200 -100 400 400 Q 600 900 800 375" opacity="0.64"></path><path d="M 0 350 Q 200 -100 400 400 Q 600 900 800 350" opacity="0.67"></path><path d="M 0 325 Q 200 -100 400 400 Q 600 900 800 325" opacity="0.69"></path><path d="M 0 300 Q 200 -100 400 400 Q 600 900 800 300" opacity="0.72"></path><path d="M 0 275 Q 200 -100 400 400 Q 600 900 800 275" opacity="0.74"></path><path d="M 0 250 Q 200 -100 400 400 Q 600 900 800 250" opacity="0.77"></path><path d="M 0 225 Q 200 -100 400 400 Q 600 900 800 225" opacity="0.79"></path><path d="M 0 200 Q 200 -100 400 400 Q 600 900 800 200" opacity="0.82"></path><path d="M 0 175 Q 200 -100 400 400 Q 600 900 800 175" opacity="0.85"></path><path d="M 0 150 Q 200 -100 400 400 Q 600 900 800 150" opacity="0.87"></path><path d="M 0 125 Q 200 -100 400 400 Q 600 900 800 125" opacity="0.90"></path><path d="M 0 100 Q 200 -100 400 400 Q 600 900 800 100" opacity="0.92"></path><path d="M 0 75 Q 200 -100 400 400 Q 600 900 800 75" opacity="0.95"></path><path d="M 0 50 Q 200 -100 400 400 Q 600 900 800 50" opacity="0.97"></path></g></svg>